<svg width="1110" height="409" viewBox="0 0 1110 409" fill="none" xmlns="http://www.w3.org/2000/svg">
<mask id="mask0_2_375" style="mask-type:alpha" maskUnits="userSpaceOnUse" x="0" y="0" width="1110" height="409">
<rect width="1110" height="409" rx="20" fill="#063183"/>
</mask>
<g mask="url(#mask0_2_375)">
<g clip-path="url(#clip0_2_375)">
<path d="M888.978 105.188H886.575V39.196C886.575 29.0658 882.561 19.3505 875.415 12.1874C868.269 5.02422 858.578 1.00001 848.473 1H708.998C698.892 1 689.201 5.02421 682.055 12.1874C674.91 19.3505 670.895 29.0658 670.895 39.196V401.241C670.895 411.371 674.91 421.086 682.055 428.249C689.201 435.413 698.892 439.437 708.998 439.437H848.473C858.578 439.437 868.269 435.412 875.415 428.249C882.56 421.086 886.574 411.371 886.574 401.241V152.163H888.977L888.978 105.188Z" fill="#F4F4F4"/>
<path d="M850.01 10.9336H831.805C832.642 12.9914 832.962 15.2241 832.736 17.4349C832.509 19.6457 831.744 21.7668 830.507 23.6113C829.271 25.4558 827.601 26.9671 825.644 28.012C823.687 29.0569 821.504 29.6034 819.287 29.6033H739.384C737.167 29.6032 734.984 29.0566 733.028 28.0116C731.071 26.9666 729.401 25.4553 728.164 23.6108C726.928 21.7663 726.163 19.6453 725.937 17.4346C725.71 15.2239 726.03 12.9913 726.867 10.9336H709.863C702.316 10.9336 695.079 13.9388 689.743 19.2882C684.406 24.6376 681.409 31.8929 681.409 39.458V400.977C681.409 408.542 684.406 415.797 689.743 421.147C695.079 426.496 702.316 429.501 709.863 429.501H850.01C857.556 429.501 864.794 426.496 870.13 421.147C875.466 415.797 878.464 408.542 878.464 400.977V39.4574C878.464 31.8924 875.466 24.6372 870.13 19.288C864.794 13.9387 857.556 10.9336 850.01 10.9336H850.01Z" fill="white"/>
<path d="M779.936 224.779C766.877 224.779 754.112 220.897 743.254 213.624C732.396 206.351 723.933 196.014 718.936 183.92C713.939 171.826 712.631 158.517 715.179 145.678C717.726 132.839 724.015 121.045 733.248 111.789C742.482 102.532 754.247 96.2283 767.055 93.6744C779.862 91.1205 793.138 92.4313 805.203 97.4409C817.267 102.451 827.579 110.934 834.834 121.819C842.089 132.703 845.961 145.5 845.961 158.591C845.941 176.139 838.979 192.962 826.601 205.371C814.223 217.779 797.441 224.759 779.936 224.779ZM779.936 93.6633C767.126 93.6633 754.603 97.4713 743.952 104.606C733.301 111.74 725 121.88 720.098 133.744C715.196 145.608 713.913 158.663 716.412 171.257C718.911 183.852 725.08 195.421 734.138 204.501C743.196 213.582 754.736 219.765 767.3 222.271C779.864 224.776 792.886 223.49 804.721 218.576C816.556 213.662 826.671 205.34 833.788 194.662C840.905 183.985 844.704 171.432 844.704 158.591C844.684 141.377 837.854 124.874 825.712 112.702C813.57 100.53 797.107 93.6828 779.936 93.6633Z" fill="#3F3D56"/>
<path d="M804.186 139.363C809.841 134.573 813.276 127.007 812.375 119.64C811.474 112.274 805.895 105.503 798.658 103.938C791.422 102.374 783.172 106.704 780.974 113.791C779.764 100.128 778.37 85.8927 771.124 74.2576C764.563 63.7222 753.199 56.1838 740.883 54.8352C728.566 53.4865 715.599 58.5802 707.918 68.3251C700.237 78.0701 698.356 92.2372 703.736 103.425C707.699 111.667 715 117.801 722.65 122.791C747.056 138.711 777.331 144.09 806.139 139.84L804.186 139.363Z" fill="#CFDEF3"/>
<path d="M720.097 58.8625C730.259 67.1603 739.582 76.4407 747.931 86.5696C760.996 102.367 771.569 120.079 779.281 139.088C779.845 140.474 777.599 141.078 777.041 139.707C764.423 108.813 744.28 81.5838 718.454 60.5092C717.294 59.5625 718.947 57.9237 720.097 58.8625Z" fill="white"/>
<path d="M723.555 289.706C727.376 289.706 730.472 286.602 730.472 282.772C730.472 278.943 727.376 275.838 723.555 275.838C719.735 275.838 716.638 278.943 716.638 282.772C716.638 286.602 719.735 289.706 723.555 289.706Z" fill="#17275F"/>
<path d="M838.203 287.815H750.169C748.835 287.815 747.556 287.284 746.612 286.338C745.669 285.392 745.139 284.11 745.139 282.772C745.139 281.435 745.669 280.152 746.612 279.206C747.556 278.261 748.835 277.729 750.169 277.729H838.203C839.538 277.729 840.817 278.261 841.76 279.206C842.704 280.152 843.234 281.435 843.234 282.772C843.234 284.11 842.704 285.392 841.76 286.338C840.817 287.284 839.538 287.815 838.203 287.815Z" fill="#DAE9FF"/>
<path d="M810.9 287.876H749.806C748.456 287.876 747.161 287.338 746.206 286.381C745.251 285.424 744.715 284.126 744.715 282.772C744.715 281.419 745.251 280.12 746.206 279.163C747.161 278.206 748.456 277.668 749.806 277.668H810.9C812.25 277.668 813.545 278.206 814.5 279.163C815.455 280.12 815.991 281.419 815.991 282.772C815.991 284.126 815.455 285.424 814.5 286.381C813.545 287.338 812.25 287.876 810.9 287.876Z" fill="#5784F5"/>
<path d="M723.555 319.963C727.376 319.963 730.472 316.859 730.472 313.029C730.472 309.2 727.376 306.095 723.555 306.095C719.735 306.095 716.638 309.2 716.638 313.029C716.638 316.859 719.735 319.963 723.555 319.963Z" fill="#17275F"/>
<path d="M838.203 318.072H750.169C748.835 318.072 747.556 317.541 746.612 316.595C745.669 315.65 745.139 314.367 745.139 313.029C745.139 311.692 745.669 310.409 746.612 309.464C747.556 308.518 748.835 307.987 750.169 307.987H838.203C839.538 307.987 840.817 308.518 841.76 309.464C842.704 310.409 843.234 311.692 843.234 313.029C843.234 314.367 842.704 315.65 841.76 316.595C840.817 317.541 839.538 318.072 838.203 318.072Z" fill="#DAE9FF"/>
<path d="M723.555 350.221C727.376 350.221 730.472 347.117 730.472 343.287C730.472 339.457 727.376 336.353 723.555 336.353C719.735 336.353 716.638 339.457 716.638 343.287C716.638 347.117 719.735 350.221 723.555 350.221Z" fill="#17275F"/>
<path d="M838.203 348.33H750.169C748.835 348.33 747.556 347.799 746.612 346.853C745.669 345.907 745.139 344.625 745.139 343.287C745.139 341.95 745.669 340.667 746.612 339.721C747.556 338.775 748.835 338.244 750.169 338.244H838.203C839.538 338.244 840.817 338.775 841.76 339.721C842.704 340.667 843.234 341.95 843.234 343.287C843.234 344.625 842.704 345.907 841.76 346.853C840.817 347.799 839.538 348.33 838.203 348.33Z" fill="#DAE9FF"/>
<path d="M790.778 318.133H749.806C748.456 318.133 747.161 317.596 746.206 316.639C745.251 315.681 744.715 314.383 744.715 313.03C744.715 311.676 745.251 310.378 746.206 309.421C747.161 308.464 748.456 307.926 749.806 307.926H790.778C792.128 307.926 793.423 308.464 794.378 309.421C795.333 310.378 795.869 311.676 795.869 313.03C795.869 314.383 795.333 315.681 794.378 316.639C793.423 317.596 792.128 318.133 790.778 318.133Z" fill="#5784F5"/>
<path d="M827.249 348.391H749.806C748.456 348.391 747.161 347.853 746.206 346.896C745.251 345.939 744.715 344.64 744.715 343.287C744.715 341.933 745.251 340.635 746.206 339.678C747.161 338.721 748.456 338.183 749.806 338.183H827.249C828.599 338.183 829.894 338.721 830.849 339.678C831.804 340.635 832.34 341.933 832.34 343.287C832.34 344.64 831.804 345.939 830.849 346.896C829.894 347.853 828.599 348.391 827.249 348.391Z" fill="#5784F5"/>
<path d="M814.894 148.299H806.251V122.697C806.252 121.945 806.55 121.224 807.081 120.692C807.611 120.161 808.33 119.861 809.081 119.861H812.064C812.814 119.861 813.533 120.161 814.064 120.692C814.594 121.224 814.893 121.945 814.894 122.697V148.299Z" fill="#3F3D56"/>
<path d="M820.133 191.865H737.52L737.223 145.189C737.22 144.468 737.361 143.754 737.639 143.088C737.916 142.423 738.324 141.821 738.838 141.316L759.592 121.053C760.576 120.088 761.895 119.543 763.272 119.533L798.006 119.215C798.794 119.21 799.573 119.379 800.288 119.709C801.004 120.039 801.638 120.522 802.147 121.125L802.15 121.129L818.648 141.411C819.607 142.593 820.132 144.07 820.133 145.594L820.133 191.865Z" fill="#161B3D"/>
<path d="M820.134 191.865H775.738V150.034C775.738 148.759 776.191 147.527 777.016 146.557L796.306 123.886V123.886C796.807 123.296 797.43 122.822 798.132 122.497C798.834 122.172 799.599 122.004 800.372 122.005H800.392C801.169 122.007 801.936 122.18 802.639 122.51C803.343 122.84 803.966 123.32 804.465 123.917L818.882 141.122C819.69 142.088 820.133 143.308 820.134 144.568V191.865Z" fill="#7398F6"/>
<path d="M801.301 175.798H794.878C794.461 175.798 794.062 175.632 793.767 175.336C793.472 175.041 793.306 174.64 793.306 174.222V168.824C793.306 168.406 793.472 168.005 793.767 167.71C794.062 167.414 794.461 167.248 794.878 167.248H801.301C801.718 167.248 802.118 167.414 802.412 167.71C802.707 168.005 802.873 168.406 802.873 168.824V174.222C802.873 174.64 802.707 175.041 802.412 175.336C802.118 175.632 801.718 175.798 801.301 175.798Z" fill="white"/>
<path d="M801.301 161.964H794.878C794.461 161.964 794.062 161.798 793.767 161.502C793.472 161.207 793.306 160.806 793.306 160.388V155.115C793.306 154.697 793.472 154.297 793.767 154.001C794.062 153.706 794.461 153.54 794.878 153.539H801.301C801.718 153.54 802.118 153.706 802.412 154.001C802.707 154.297 802.873 154.697 802.873 155.115V160.388C802.873 160.806 802.707 161.207 802.412 161.502C802.118 161.798 801.718 161.964 801.301 161.964Z" fill="white"/>
<path d="M761.578 173.696H755.155C754.738 173.696 754.339 173.53 754.044 173.234C753.749 172.939 753.583 172.538 753.583 172.121V166.722C753.583 166.304 753.749 165.904 754.044 165.608C754.339 165.313 754.738 165.147 755.155 165.146H761.578C761.995 165.147 762.395 165.313 762.689 165.608C762.984 165.904 763.15 166.304 763.15 166.722V172.121C763.15 172.538 762.984 172.939 762.689 173.234C762.395 173.53 761.995 173.696 761.578 173.696Z" fill="white"/>
<path d="M761.578 159.862H755.155C754.738 159.862 754.339 159.696 754.044 159.4C753.749 159.105 753.583 158.704 753.583 158.286V153.014C753.583 152.596 753.749 152.195 754.044 151.9C754.339 151.604 754.738 151.438 755.155 151.438H761.578C761.995 151.438 762.395 151.604 762.689 151.9C762.984 152.195 763.15 152.596 763.15 153.014V158.286C763.15 158.704 762.984 159.105 762.689 159.4C762.395 159.696 761.995 159.862 761.578 159.862Z" fill="white"/>
<path d="M836.121 192.411H723.749C723.583 192.411 723.423 192.345 723.305 192.226C723.187 192.108 723.121 191.948 723.121 191.781C723.121 191.614 723.187 191.453 723.305 191.335C723.423 191.217 723.583 191.15 723.749 191.15H836.121C836.288 191.15 836.448 191.217 836.566 191.335C836.684 191.453 836.75 191.614 836.75 191.781C836.75 191.948 836.684 192.108 836.566 192.226C836.448 192.345 836.288 192.411 836.121 192.411Z" fill="#3F3D56"/>
</g>
</g>
<defs>
<clipPath id="clip0_2_375">
<rect width="219" height="439" fill="white" transform="translate(670 1)"/>
</clipPath>
</defs>
</svg>
